<?xml version="1.0" encoding="iso-8859-1"?>
<!-- Generator: Adobe Illustrator 21.1.0, SVG Export Plug-In . SVG Version: 6.00 Build 0)  -->
<svg version="1.1" id="Layer_1" xmlns="http://www.w3.org/2000/svg" xmlns:xlink="http://www.w3.org/1999/xlink" x="0px" y="0px"
	 viewBox="0 0 24 24" enable-background="new 0 0 24 24" xml:space="preserve">
<path fill="red" d="M23.7392578,19.8994141L13.8911133,2.0791016C13.5234375,1.4135742,12.8227539,1,12.0620117,1h-0.1240234
	c-0.7607422,0-1.4614258,0.4135742-1.8291016,1.0791016L0.2602539,19.8994141C0.0898438,20.2084961,0,20.5576172,0,20.9101563
	C0,22.0625,0.9375,23,2.0898438,23h19.8203125C23.0624962,23,24,22.0625,24,20.9101563
	C24,20.5576172,23.9101563,20.2084961,23.7392578,19.8994141z M18,18.5c0,0.2763672-0.2236328,0.5-0.5,0.5h-11
	C6.2236328,19,6,18.7763672,6,18.5v-2C6,16.2236328,6.2236328,16,6.5,16h0.6640625C7.5415039,15.1103516,8.5600586,14.5,9.75,14.5
	c0.9287109,0,1.753418,0.3720703,2.25,0.9580078C12.496582,14.8720703,13.3212891,14.5,14.25,14.5
	c1.1899414,0,2.2084961,0.6103516,2.5859375,1.5H17.5c0.2763672,0,0.5,0.2236328,0.5,0.5V18.5z"/>
<g>
</g>
<g>
</g>
<g>
</g>
<g>
</g>
<g>
</g>
<g>
</g>
<g>
</g>
<g>
</g>
<g>
</g>
<g>
</g>
<g>
</g>
<g>
</g>
<g>
</g>
<g>
</g>
<g>
</g>
</svg>
